<?xml version="1.0" encoding="utf-8"?>
<!-- Generator: Adobe Illustrator 24.1.0, SVG Export Plug-In . SVG Version: 6.00 Build 0)  -->
<svg version="1.1" id="Layer_1" xmlns="http://www.w3.org/2000/svg" xmlns:xlink="http://www.w3.org/1999/xlink" x="0px" y="0px"
	 viewBox="0 0 1000 1000" style="enable-background:new 0 0 1000 1000;" xml:space="preserve">
<g>
	<path d="M517.61,993.68L437.7,885.33l-159.82,90.75L101.8,844.7l-8.13-172.01c-13.54-13.54-33.86-35.21-48.76-55.53
		c-5.42-6.77-18.96-25.73-39.28-143.57l-5.42-32.51l115.13-85.33l-29.8-199.1l56.89-5.42c37.92-4.06,100.23-12.19,120.54-20.32
		c51.47-21.67,124.61-32.51,166.59-33.86L627.32,6.32l180.14,167.95v62.3l192.33,121.9l-33.86,46.05
		c-2.71,2.71-51.47,71.78-98.87,125.96l73.14,203.16l-20.32,24.38c-60.95,70.43-139.5,158.47-163.88,173.37
		c-6.77,5.42-28.44,18.96-205.87,55.53L517.61,993.68z M428.22,688.94l135.44,184.2c58.24-12.19,117.83-27.09,135.44-33.86
		c16.25-13.54,70.43-73.14,120.54-130.02l-36.57-101.58c-44.7,35.21-88.04,65.01-90.75,66.37l-60.95-89.39
		c31.15-21.67,119.19-85.33,155.76-125.96c20.32-23.03,41.99-51.47,59.59-73.14l-144.92-88.04c-1.35,0-4.06,1.35-5.42,1.35
		c-39.28,13.54-127.32,33.86-131.38,35.21l-39.28,9.48l-20.32-33.86c-27.09-44.7-59.59-89.39-77.2-104.29
		c-33.86,1.35-90.75,10.84-125.96,25.73c-24.38,9.48-62.3,16.25-94.81,21.67l18.96,125.96l102.94,83.97l172.01-18.96l10.84,108.35
		l-215.35,23.03l-119.19-97.52l-58.24,24.38c5.42,25.73,10.84,46.05,13.54,55.53c16.25,20.32,40.63,44.7,48.76,52.82l16.25,14.9
		l8.13,163.88l78.56,58.24l86.68-48.76l-32.51-43.34L428.22,688.94z M539.28,164.78c12.19,14.9,24.38,32.51,37.92,54.18
		c29.8-8.13,65.01-17.61,83.97-23.03c2.71-1.35,5.42-1.35,9.48-2.71L607,133.63L539.28,164.78z"/>
</g>
</svg>
